<svg xmlns="http://www.w3.org/2000/svg" width="513.333" height="513.333" version="1.0" viewBox="0 0 385 385"><path d="M170.5 1.2C136.7 5 100.8 20.1 73.9 41.8c-10.1 8.2-28 27-35.2 36.9C2.5 129.4-7.6 194.8 11.8 253.2l1.7 5.3 61.7.3 61.8.2 117.7-58.8c64.8-32.4 118.4-59.1 119.1-59.3 2.8-.9-8.2-28.7-17.9-45.7-7.6-13.3-15.5-23.6-27.3-35.9-17.9-18.7-33.2-29.9-55.1-40.4-14.9-7.1-25.8-11-40.6-14.3-20.2-4.4-42.5-5.7-62.4-3.4zm209 196.2c-3.8 2.6-130.8 63.3-151 72.1-35.5 15.4-38.6 16.8-39 17.5-.2.4 12.1 6 27.3 12.5 15.2 6.5 38.5 16.9 51.7 23.2 13.2 6.4 28.2 13.5 33.3 15.9l9.2 4.4 11.1-10.8c18-17.3 28.9-32 39.2-52.7 8.4-17 12.9-29.8 16.7-48.2 2.1-10.1 4.4-29.6 3.8-33.1-.3-2.1-.5-2.1-2.3-.8zM47.8 317.7c5.7 6.9 22.7 23.1 29.7 28.4C93 358 114.3 369.2 133 375.4c37.3 12.4 78.7 12.7 115.8.8l8.7-2.8-60-30.2-60-30.2H43.8l4 4.7z"/></svg>