<?xml version="1.0" standalone="no"?>
<!DOCTYPE svg PUBLIC "-//W3C//DTD SVG 20010904//EN"
 "http://www.w3.org/TR/2001/REC-SVG-20010904/DTD/svg10.dtd">
<svg version="1.0" xmlns="http://www.w3.org/2000/svg"
 width="385.000000pt" height="385.000000pt" viewBox="0 0 385.000000 385.000000"
 preserveAspectRatio="xMidYMid meet">
<metadata>
Created by potrace 1.16, written by Peter Selinger 2001-2019
</metadata>
<g transform="translate(0.000000,385.000000) scale(0.100000,-0.100000)"
fill="#000000" stroke="none">
<path d="M1705 3838 c-338 -38 -697 -189 -966 -406 -101 -82 -280 -270 -352
-369 -362 -507 -463 -1161 -269 -1745 l17 -53 617 -3 618 -2 1177 588 c648
324 1184 591 1191 593 28 9 -82 287 -179 457 -76 133 -155 236 -273 359 -179
187 -332 299 -551 404 -149 71 -258 110 -406 143 -202 44 -425 57 -624 34z"/>
<path d="M3795 1876 c-38 -26 -1308 -633 -1510 -721 -355 -154 -386 -168 -390
-175 -2 -4 121 -60 273 -125 152 -65 385 -169 517 -232 132 -64 282 -135 333
-159 l92 -44 111 108 c180 173 289 320 392 527 84 170 129 298 167 482 21 101
44 296 38 331 -3 21 -5 21 -23 8z"/>
<path d="M478 673 c57 -69 227 -231 297 -284 155 -119 368 -231 555 -293 373
-124 787 -127 1158 -8 l87 28 -600 302 -600 302 -468 0 -469 0 40 -47z"/>
</g>
</svg>
